<svg width="25" height="15" viewBox="0 0 25 15" fill="none" xmlns="http://www.w3.org/2000/svg">
<path d="M1 6.49121C0.447715 6.49121 4.82823e-08 6.93893 0 7.49121C-4.82823e-08 8.0435 0.447715 8.49121 1 8.49121L1 6.49121ZM24.7071 8.19832C25.0976 7.8078 25.0976 7.17463 24.7071 6.78411L18.3431 0.420145C17.9526 0.0296202 17.3195 0.0296202 16.9289 0.420145C16.5384 0.810669 16.5384 1.44383 16.9289 1.83436L22.5858 7.49121L16.9289 13.1481C16.5384 13.5386 16.5384 14.1718 16.9289 14.5623C17.3195 14.9528 17.9526 14.9528 18.3431 14.5623L24.7071 8.19832ZM1 8.49121L24 8.49121L24 6.49121L1 6.49121L1 8.49121Z" fill="#0F4D00"/>
</svg>
