<svg width="27" height="28" viewBox="0 0 27 28" fill="none" xmlns="http://www.w3.org/2000/svg">
<path d="M8.64012 1.67969C4.76966 1.67969 1.62012 4.94588 1.62012 8.95969V19.0397C1.62012 23.0535 4.76966 26.3197 8.64012 26.3197H18.3601C22.2306 26.3197 25.3801 23.0535 25.3801 19.0397V8.95969C25.3801 4.94588 22.2306 1.67969 18.3601 1.67969H8.64012ZM8.64012 2.79969H18.3601C21.6468 2.79969 24.3001 5.55126 24.3001 8.95969V19.0397C24.3001 22.4481 21.6468 25.1997 18.3601 25.1997H8.64012C5.35342 25.1997 2.70012 22.4481 2.70012 19.0397V8.95969C2.70012 5.55126 5.35342 2.79969 8.64012 2.79969ZM19.9801 6.15969C19.6937 6.15969 19.419 6.27769 19.2164 6.48773C19.0139 6.69777 18.9001 6.98264 18.9001 7.27969C18.9001 7.57673 19.0139 7.86161 19.2164 8.07165C19.419 8.28169 19.6937 8.39969 19.9801 8.39969C20.2666 8.39969 20.5413 8.28169 20.7438 8.07165C20.9463 7.86161 21.0601 7.57673 21.0601 7.27969C21.0601 6.98264 20.9463 6.69777 20.7438 6.48773C20.5413 6.27769 20.2666 6.15969 19.9801 6.15969ZM13.5001 7.83969C10.2259 7.83969 7.56012 10.6042 7.56012 13.9997C7.56012 17.3951 10.2259 20.1597 13.5001 20.1597C16.7743 20.1597 19.4401 17.3951 19.4401 13.9997C19.4401 10.6042 16.7743 7.83969 13.5001 7.83969ZM13.5001 8.95969C16.1906 8.95969 18.3601 11.2095 18.3601 13.9997C18.3601 16.7898 16.1906 19.0397 13.5001 19.0397C10.8096 19.0397 8.64012 16.7898 8.64012 13.9997C8.64012 11.2095 10.8096 8.95969 13.5001 8.95969Z" fill="black"/>
</svg>
