<svg width="29" height="29" viewBox="0 0 29 29" fill="none" xmlns="http://www.w3.org/2000/svg">
<path d="M5.21982 2.32031C3.62511 2.32031 2.31982 3.62559 2.31982 5.22031V23.7803C2.31982 25.375 3.62511 26.6803 5.21982 26.6803H23.7798C25.3745 26.6803 26.6798 25.375 26.6798 23.7803V5.22031C26.6798 3.62559 25.3745 2.32031 23.7798 2.32031H5.21982ZM5.21982 3.48031H23.7798C24.7475 3.48031 25.5198 4.25259 25.5198 5.22031V23.7803C25.5198 24.748 24.7475 25.5203 23.7798 25.5203H5.21982C4.2521 25.5203 3.47982 24.748 3.47982 23.7803V5.22031C3.47982 4.25259 4.2521 3.48031 5.21982 3.48031ZM13.5698 9.27578C12.9564 9.27438 12.4095 9.30865 11.9204 9.54879C11.92 9.54917 11.9197 9.54954 11.9193 9.54992C11.6808 9.66741 11.5128 9.81663 11.3789 9.99399C11.312 10.0827 11.2435 10.1623 11.2067 10.3644C11.1884 10.4655 11.1781 10.6293 11.2838 10.8062C11.3895 10.9831 11.602 11.0837 11.738 11.1019C11.8325 11.1145 12.0457 11.2052 12.0654 11.2321C12.0658 11.2329 12.0662 11.2337 12.0665 11.2344C12.0667 11.2346 12.1492 11.4502 12.173 11.6422C12.1968 11.8343 12.1957 11.99 12.1957 11.99C12.1954 12.0055 12.1958 12.021 12.1968 12.0364C12.1968 12.0364 12.2304 12.5396 12.2081 13.0594C12.1993 13.2665 12.1725 13.4508 12.1447 13.6156C11.9382 13.3876 11.6338 12.9746 11.1943 12.2132C10.7067 11.368 10.3186 10.6102 10.3186 10.6102C10.2982 10.5442 10.2262 10.3388 9.94479 10.1322C9.6372 9.90548 9.33986 9.87164 9.33986 9.87164C9.30257 9.86416 9.26462 9.86037 9.22658 9.86031L6.94057 9.86145C6.94057 9.86145 6.8035 9.85352 6.63924 9.87617C6.47497 9.89883 6.22763 9.91727 5.989 10.2002C5.98863 10.2005 5.98825 10.2009 5.98787 10.2013C5.77461 10.4561 5.78751 10.7377 5.81342 10.8968C5.83932 11.0559 5.89725 11.1766 5.89725 11.1766C5.89836 11.1789 5.8995 11.1812 5.90064 11.1834C5.90064 11.1834 7.7705 15.1148 9.88361 17.4298C11.4181 19.1106 12.9931 19.1392 14.2925 19.1392H15.2622C15.5098 19.1392 15.7337 19.1295 15.9815 18.9851C16.2294 18.8407 16.3962 18.4892 16.3962 18.2454C16.3962 17.9899 16.4343 17.789 16.4811 17.6858C16.514 17.6132 16.5401 17.587 16.5808 17.5657C16.5894 17.5712 16.5838 17.568 16.608 17.585C16.7045 17.6529 16.864 17.8076 17.0373 18.0007C17.384 18.3868 17.7776 18.9165 18.3061 19.2796C18.6847 19.5401 19.0424 19.6557 19.3143 19.6977C19.4846 19.7239 19.617 19.7189 19.7108 19.7113L21.8767 19.7203C21.8895 19.7204 21.9024 19.72 21.9152 19.7192C21.9152 19.7192 22.2884 19.7235 22.6765 19.4915C22.8705 19.3754 23.0993 19.1555 23.1738 18.8345C23.2482 18.5135 23.1547 18.1808 22.9721 17.8772C22.9721 17.8769 22.9721 17.8765 22.9721 17.8761C23.0038 17.9286 22.9434 17.8207 22.8815 17.7198C22.8196 17.6189 22.7297 17.4829 22.6006 17.3142C22.3424 16.9769 21.9289 16.5047 21.2605 15.8823C21.2601 15.8823 21.2597 15.8823 21.2593 15.8823C20.9198 15.5665 20.6906 15.3428 20.5966 15.2185C20.5027 15.0942 20.5335 15.1595 20.54 15.1279C20.553 15.0647 20.9604 14.4769 21.7895 13.3698C22.2934 12.6959 22.6471 12.1899 22.8804 11.7691C23.1136 11.3483 23.2818 10.9838 23.1647 10.5377C23.1643 10.537 23.164 10.5362 23.1636 10.5355C23.1116 10.3397 22.9696 10.1592 22.8237 10.0608C22.6779 9.96249 22.5396 9.92403 22.4159 9.89996C22.1685 9.85183 21.9526 9.86031 21.7521 9.86031C21.3317 9.86031 19.4667 9.87504 19.3131 9.87504C19.1318 9.87504 18.8318 9.95754 18.6992 10.037C18.3656 10.2378 18.2698 10.5015 18.2698 10.5015C18.2638 10.5126 18.2581 10.524 18.2528 10.5355C18.2528 10.5355 17.8681 11.3886 17.3726 12.2313C16.8707 13.0861 16.4999 13.4937 16.2761 13.6824C16.2699 13.6489 16.271 13.6761 16.267 13.6292C16.247 13.3905 16.2693 13.0607 16.2693 12.7388C16.2693 11.872 16.3428 11.2653 16.3033 10.7292C16.2835 10.4611 16.2339 10.1847 16.0574 9.93055C15.881 9.6764 15.5875 9.51129 15.2973 9.44117C15.1232 9.39918 14.9248 9.28996 14.2064 9.28258C14.206 9.28258 14.2057 9.28258 14.2053 9.28258C13.9856 9.28038 13.7742 9.27625 13.5698 9.27578ZM14.194 10.4426C14.8296 10.4491 14.6713 10.4841 15.0243 10.5695C15.1338 10.5959 15.1073 10.5958 15.1047 10.5921C15.1022 10.5885 15.1344 10.6483 15.1467 10.8153C15.1713 11.1493 15.1093 11.8134 15.1093 12.7388C15.1093 12.9911 15.0788 13.3512 15.1104 13.7266C15.142 14.102 15.2351 14.5837 15.6836 14.8741C15.8962 15.012 16.1431 15.0207 16.3542 14.9682C16.5654 14.9157 16.7569 14.8064 16.958 14.6453C17.3603 14.3232 17.809 13.7796 18.3729 12.8192C18.9 11.9227 19.2834 11.069 19.2962 11.0407C19.2986 11.0387 19.3012 11.0373 19.3041 11.035C19.3113 11.0351 19.3038 11.035 19.3131 11.035C19.5297 11.035 21.3605 11.0203 21.7521 11.0203C21.8435 11.0203 21.8768 11.0258 21.9492 11.0282C21.9295 11.0939 21.9514 11.052 21.8654 11.2072C21.6849 11.5327 21.3525 12.0164 20.8606 12.6742C20.0523 13.7537 19.5513 14.1767 19.4038 14.8934C19.33 15.2518 19.4682 15.649 19.6711 15.9175C19.874 16.1859 20.1301 16.4159 20.4697 16.732C21.0988 17.3177 21.4678 17.7433 21.6796 18.02C21.7855 18.1583 21.8522 18.2582 21.8937 18.3258C21.9352 18.3934 21.9249 18.3863 21.9787 18.4754C22.014 18.5346 22.001 18.4985 22.007 18.5161C21.9374 18.5357 21.8532 18.5593 21.8484 18.5603L19.7153 18.5513C19.6769 18.5512 19.6385 18.555 19.6009 18.5626C19.6009 18.5626 19.6062 18.5689 19.4921 18.5513C19.378 18.5336 19.1966 18.4843 18.9631 18.3236C18.6814 18.1299 18.287 17.6562 17.9005 17.2259C17.7073 17.0107 17.5146 16.804 17.2752 16.6357C17.0358 16.4673 16.6776 16.309 16.2908 16.4306C15.8893 16.5567 15.5768 16.87 15.4242 17.2066C15.3106 17.4571 15.3014 17.7188 15.2837 17.9792C15.2645 17.9806 15.2866 17.9792 15.2622 17.9792H14.2925C12.975 17.9792 12.0394 18.0703 10.74 16.647C8.99219 14.7322 7.39083 11.5464 7.12975 11.0214L9.14162 11.0203C9.17698 11.0339 9.25267 11.0623 9.25717 11.0656C9.25792 11.0664 9.25868 11.0671 9.25943 11.0679C9.18589 11.0141 9.26283 11.0894 9.26283 11.0894C9.26993 11.1068 9.27787 11.1238 9.28662 11.1404C9.28662 11.1404 9.68527 11.9192 10.1895 12.7932C10.684 13.6499 11.0444 14.1852 11.3925 14.5388C11.5666 14.7157 11.7422 14.8575 11.9771 14.9376C12.2119 15.0177 12.5151 14.9883 12.719 14.8764C13.1357 14.6483 13.1917 14.3119 13.2594 14.0177C13.3272 13.7232 13.3541 13.4094 13.367 13.1092C13.392 12.5265 13.3567 12.0223 13.3546 11.9911C13.3547 11.9802 13.3573 11.7699 13.324 11.5006C13.2898 11.2249 13.2517 10.8877 13.0022 10.5479L13.0011 10.5468C12.9994 10.5444 12.9972 10.5446 12.9955 10.5423C13.3253 10.495 13.6076 10.4367 14.194 10.4426ZM19.3109 11.0113L19.3029 11.0294C19.3017 11.0301 19.3021 11.0285 19.3007 11.0294C19.3031 11.0247 19.3109 11.0113 19.3109 11.0113Z" fill="black"/>
</svg>
