<svg width="29" height="29" viewBox="0 0 29 29" fill="none" xmlns="http://www.w3.org/2000/svg">
<path d="M5.22007 2.32031C3.62535 2.32031 2.32007 3.62559 2.32007 5.22031V23.7803C2.32007 25.375 3.62535 26.6803 5.22007 26.6803H14.9826C15.0453 26.6907 15.1092 26.6907 15.1718 26.6803H18.4626C18.5253 26.6907 18.5892 26.6907 18.6518 26.6803H23.7801C25.3748 26.6803 26.6801 25.375 26.6801 23.7803V5.22031C26.6801 3.62559 25.3748 2.32031 23.7801 2.32031H5.22007ZM5.22007 3.48031H23.7801C24.7478 3.48031 25.5201 4.25259 25.5201 5.22031V23.7803C25.5201 24.748 24.7478 25.5203 23.7801 25.5203H19.1401V17.4003H21.3559L22.1681 13.3403H19.1401V12.1803C19.1401 11.857 19.1708 11.8317 19.2794 11.7612C19.388 11.6907 19.7234 11.6003 20.3001 11.6003H22.0401V8.33441L21.7093 8.17695C21.7093 8.17695 20.377 7.54031 18.5601 7.54031C17.2551 7.54031 16.183 8.06026 15.4969 8.91781C14.8109 9.77537 14.5001 10.9236 14.5001 12.1803V13.3403H12.7601V17.4003H14.5001V25.5203H5.22007C4.25235 25.5203 3.48007 24.748 3.48007 23.7803V5.22031C3.48007 4.25259 4.25235 3.48031 5.22007 3.48031ZM18.5601 8.70031C19.7659 8.70031 20.5247 8.96622 20.8801 9.10699V10.4403H20.3001C19.6326 10.4403 19.0977 10.4955 18.6473 10.7881C18.1969 11.0806 17.9801 11.636 17.9801 12.1803V14.5003H20.7521L20.4043 16.2403H17.9801V25.5203H15.6601V16.2403H13.9201V14.5003H15.6601V12.1803C15.6601 11.117 15.9292 10.2353 16.4032 9.64281C16.8771 9.05037 17.5451 8.70031 18.5601 8.70031Z" fill="black"/>
</svg>
