<svg width="29" height="29" viewBox="0 0 29 29" fill="none" xmlns="http://www.w3.org/2000/svg">
<path d="M5.22007 2.32031C3.62535 2.32031 2.32007 3.62559 2.32007 5.22031V23.7803C2.32007 25.375 3.62535 26.6803 5.22007 26.6803H23.7801C25.3748 26.6803 26.6801 25.375 26.6801 23.7803V5.22031C26.6801 3.62559 25.3748 2.32031 23.7801 2.32031H5.22007ZM5.22007 3.48031H23.7801C24.7478 3.48031 25.5201 4.25259 25.5201 5.22031V23.7803C25.5201 24.748 24.7478 25.5203 23.7801 25.5203H5.22007C4.25235 25.5203 3.48007 24.748 3.48007 23.7803V5.22031C3.48007 4.25259 4.25235 3.48031 5.22007 3.48031ZM8.12007 6.38711C7.48484 6.38711 6.91322 6.57698 6.48995 6.93313C6.06669 7.28927 5.80687 7.82133 5.80687 8.39106C5.80687 9.47402 6.74621 10.3183 7.94108 10.4018C7.94184 10.4022 7.94259 10.4026 7.94335 10.4029C8.00029 10.4223 8.05992 10.4327 8.12007 10.4335C9.43841 10.4335 10.4333 9.51004 10.4333 8.39106C10.4332 8.38085 10.4328 8.37065 10.4321 8.36047C10.3731 7.25833 9.39053 6.38711 8.12007 6.38711ZM8.12007 7.53352C8.92756 7.53352 9.24641 7.89413 9.2812 8.40578C9.27415 8.9024 8.96692 9.28711 8.12007 9.28711C7.31653 9.28711 6.95327 8.8756 6.95327 8.39106C6.95327 8.14878 7.04168 7.96621 7.22741 7.80992C7.41315 7.65364 7.7113 7.53352 8.12007 7.53352ZM6.38007 11.0203C6.22625 11.0203 6.07873 11.0814 5.96996 11.1902C5.8612 11.299 5.80008 11.4465 5.80007 11.6003V22.6203C5.80008 22.7741 5.8612 22.9217 5.96996 23.0304C6.07873 23.1392 6.22625 23.2003 6.38007 23.2003H9.86007C10.0139 23.2003 10.1614 23.1392 10.2702 23.0304C10.3789 22.9217 10.4401 22.7741 10.4401 22.6203V19.2185V11.6003C10.4401 11.4465 10.3789 11.299 10.2702 11.1902C10.1614 11.0814 10.0139 11.0203 9.86007 11.0203H6.38007ZM11.6001 11.0203C11.4462 11.0203 11.2987 11.0814 11.19 11.1902C11.0812 11.299 11.0201 11.4465 11.0201 11.6003V22.6203C11.0201 22.7741 11.0812 22.9217 11.19 23.0304C11.2987 23.1392 11.4462 23.2003 11.6001 23.2003H15.0801C15.2339 23.2003 15.3814 23.1392 15.4902 23.0304C15.5989 22.9217 15.6601 22.7741 15.6601 22.6203V16.8203C15.6601 16.3391 15.7914 15.8604 16.0226 15.547C16.2538 15.2336 16.5454 15.0455 17.0999 15.0554C17.6716 15.0652 17.9743 15.2611 18.2032 15.5686C18.4322 15.876 18.5601 16.337 18.5601 16.8203V22.6203C18.5601 22.7741 18.6212 22.9217 18.73 23.0304C18.8387 23.1392 18.9862 23.2003 19.1401 23.2003H22.6201C22.7739 23.2003 22.9214 23.1392 23.0302 23.0304C23.1389 22.9217 23.2001 22.7741 23.2001 22.6203V16.3921C23.2001 14.6744 22.6913 13.3138 21.8192 12.3933C20.9471 11.4727 19.7341 11.0203 18.4513 11.0203C17.2322 11.0203 16.3044 11.4291 15.6601 11.8461V11.6003C15.6601 11.4465 15.5989 11.299 15.4902 11.1902C15.3814 11.0814 15.2339 11.0203 15.0801 11.0203H11.6001ZM6.96007 12.1803H9.28007V19.2185V22.0403H6.96007V12.1803ZM12.1801 12.1803H14.5001V13.0854C14.5001 13.207 14.5384 13.3256 14.6094 13.4243C14.6805 13.523 14.7808 13.5968 14.8962 13.6354C15.0115 13.6739 15.136 13.6753 15.2522 13.6392C15.3683 13.6031 15.4702 13.5315 15.5434 13.4343C15.5434 13.4343 16.4542 12.1803 18.4513 12.1803C19.4683 12.1803 20.3403 12.5182 20.9775 13.1908C21.6147 13.8634 22.0401 14.8995 22.0401 16.3921V22.0403H19.7201V16.8203C19.7201 16.1436 19.5579 15.444 19.1344 14.8753C18.7109 14.3065 17.9985 13.9105 17.1203 13.8954C16.2375 13.8797 15.5136 14.284 15.0891 14.8594C14.6646 15.4349 14.5001 16.1415 14.5001 16.8203V22.0403H12.1801V12.1803Z" fill="black"/>
</svg>
