<svg width="121" height="58" viewBox="0 0 121 58" fill="none" xmlns="http://www.w3.org/2000/svg">
<path fill-rule="evenodd" clip-rule="evenodd" d="M95 57.251C109.359 57.251 121 45.3865 121 30.751C121 16.1154 109.359 4.25098 95 4.25098V14.1885C103.975 14.1885 111.25 21.6038 111.25 30.751C111.25 39.8982 103.975 47.3135 95 47.3135V57.251Z" fill="black"/>
<path fill-rule="evenodd" clip-rule="evenodd" d="M95 4.25098C80.6406 4.25098 69 16.1154 69 30.751C69 45.3865 80.6406 57.251 95 57.251L95 47.3135C86.0254 47.3135 78.75 39.8982 78.75 30.751C78.75 21.6038 86.0254 14.1885 95 14.1885L95 4.25098Z" fill="black"/>
<path fill-rule="evenodd" clip-rule="evenodd" d="M13 57.251C27.3594 57.251 39 45.3451 39 30.8086C39 16.2721 27.3594 4.25098 13 4.25098L13 14.251C21.9746 14.251 29.25 21.7233 29.25 30.8086C29.25 39.8939 21.9746 47.259 13 47.259L13 57.251Z" fill="black"/>
<path d="M0 14.251H13.5V4.25098H0V14.251Z" fill="black"/>
<path d="M49 4.25098L49 57.251L59 57.251L59 4.25098L49 4.25098Z" fill="black"/>
<path d="M100 26.251V4.71906C96.7356 3.76057 93.2644 3.76057 90 4.71906V26.251H100Z" fill="#33FF00"/>
<path fill-rule="evenodd" clip-rule="evenodd" d="M104 1.72467V30.251H86V1.72467L88.8731 0.881079C92.8733 -0.293438 97.1267 -0.293438 101.127 0.881079L104 1.72467ZM100 26.251H90V4.71906C93.2644 3.76057 96.7356 3.76057 100 4.71906V26.251Z" fill="white"/>
<path d="M0 57.251H13.5V47.251H0V57.251Z" fill="black"/>
</svg>
